<svg width="100" height="100" viewBox="0 0 100 100" fill="none" xmlns="http://www.w3.org/2000/svg">
<path d="M56.5217 6.52174C56.5217 4.79207 55.8346 3.13324 54.6116 1.91017C53.3885 0.687109 51.7297 0 50 0C48.2703 0 46.6115 0.687109 45.3884 1.91017C44.1654 3.13324 43.4783 4.79207 43.4783 6.52174V43.4783H6.52174C4.79207 43.4783 3.13324 44.1654 1.91017 45.3884C0.687109 46.6115 0 48.2703 0 50C0 51.7297 0.687109 53.3885 1.91017 54.6116C3.13324 55.8346 4.79207 56.5217 6.52174 56.5217H43.4783V93.4783C43.4783 95.2079 44.1654 96.8668 45.3884 98.0898C46.6115 99.3129 48.2703 100 50 100C51.7297 100 53.3885 99.3129 54.6116 98.0898C55.8346 96.8668 56.5217 95.2079 56.5217 93.4783V56.5217H93.4783C95.2079 56.5217 96.8668 55.8346 98.0898 54.6116C99.3129 53.3885 100 51.7297 100 50C100 48.2703 99.3129 46.6115 98.0898 45.3884C96.8668 44.1654 95.2079 43.4783 93.4783 43.4783H56.5217V6.52174Z" fill="black"/>
</svg>
