<svg width="30" height="30" viewBox="0 0 30 30" fill="none" xmlns="http://www.w3.org/2000/svg">
<path d="M16.9565 1.95652C16.9565 1.43762 16.7504 0.939971 16.3835 0.573052C16.0166 0.206133 15.5189 0 15 0C14.4811 0 13.9834 0.206133 13.6165 0.573052C13.2496 0.939971 13.0435 1.43762 13.0435 1.95652V13.0435H1.95652C1.43762 13.0435 0.939971 13.2496 0.573052 13.6165C0.206133 13.9834 0 14.4811 0 15C0 15.5189 0.206133 16.0166 0.573052 16.3835C0.939971 16.7504 1.43762 16.9565 1.95652 16.9565H13.0435V28.0435C13.0435 28.5624 13.2496 29.06 13.6165 29.4269C13.9834 29.7939 14.4811 30 15 30C15.5189 30 16.0166 29.7939 16.3835 29.4269C16.7504 29.06 16.9565 28.5624 16.9565 28.0435V16.9565H28.0435C28.5624 16.9565 29.06 16.7504 29.4269 16.3835C29.7939 16.0166 30 15.5189 30 15C30 14.4811 29.7939 13.9834 29.4269 13.6165C29.06 13.2496 28.5624 13.0435 28.0435 13.0435H16.9565V1.95652Z" fill="black"/>
</svg>
